<svg width="33" height="31" viewBox="0 0 33 31" fill="none" xmlns="http://www.w3.org/2000/svg">
<rect x="0.5" width="32" height="31" rx="8" fill="#D8EBFF" fill-opacity="0.83"/>
<path fill-rule="evenodd" clip-rule="evenodd" d="M20.2597 16.9123L17.871 18.2055C17.4492 18.0682 16.2367 17.6081 15.1279 16.5651C14.0873 15.5862 13.6526 14.5051 13.5252 14.1274L14.9033 11.8759L11.9047 8L11.5884 8.17548C10.3052 8.88352 9.36274 9.76857 8.62547 10.9619L8.57842 11.0832C8.16153 13.176 9.43412 16.2614 11.7449 18.7609C14.252 21.4725 17.5052 23 20.7366 23C20.8826 23 21.0286 22.9977 21.1746 22.9908L21.2711 22.987L21.3546 22.9428C22.654 22.2576 23.5981 21.3695 24.3256 20.1473L24.5 19.8535L20.2597 16.9123Z" fill="#2E95F4"/>
</svg>
