<svg width="38" height="38" viewBox="0 0 38 38" fill="none" xmlns="http://www.w3.org/2000/svg">
<g filter="url(#filter0_b_727_561)">
<rect width="38" height="38" rx="8" fill="#EAF1FF"/>
<rect x="0.5" y="0.5" width="37" height="37" rx="7.5" stroke="url(#paint0_linear_727_561)"/>
<path d="M28.09 13.98C27.24 13.04 25.82 12.57 23.76 12.57H23.52V12.53C23.52 10.85 23.52 8.76999 19.76 8.76999H18.24C14.48 8.76999 14.48 10.86 14.48 12.53V12.58H14.24C12.17 12.58 10.76 13.05 9.91004 13.99C8.92004 15.09 8.95004 16.57 9.05004 17.58L9.06004 17.65L9.16004 18.7C9.17004 18.71 9.19004 18.73 9.21004 18.74C9.54004 18.96 9.88004 19.18 10.24 19.38C10.38 19.47 10.53 19.55 10.68 19.63C12.39 20.57 14.27 21.2 16.18 21.51C16.27 22.45 16.68 23.55 18.87 23.55C21.06 23.55 21.49 22.46 21.56 21.49C23.6 21.16 25.57 20.45 27.35 19.41C27.41 19.38 27.45 19.35 27.5 19.32C27.96 19.06 28.39 18.78 28.81 18.47C28.83 18.46 28.85 18.44 28.86 18.42L28.9 18.06L28.95 17.59C28.96 17.53 28.96 17.48 28.97 17.41C29.05 16.4 29.03 15.02 28.09 13.98ZM20.09 20.83C20.09 21.89 20.09 22.05 18.86 22.05C17.63 22.05 17.63 21.86 17.63 20.84V19.58H20.09V20.83ZM15.91 12.57V12.53C15.91 10.83 15.91 10.2 18.24 10.2H19.76C22.09 10.2 22.09 10.84 22.09 12.53V12.58H15.91V12.57Z" fill="#248FF2"/>
<path opacity="0.4" d="M27.5 19.3C27.45 19.33 27.4 19.36 27.35 19.39C25.57 20.43 23.6 21.13 21.56 21.47C21.48 22.43 21.06 23.53 18.87 23.53C16.68 23.53 16.26 22.44 16.18 21.49C14.27 21.19 12.39 20.56 10.68 19.61C10.53 19.53 10.38 19.45 10.24 19.36C9.88003 19.16 9.54003 18.94 9.21003 18.72C9.19003 18.71 9.17003 18.69 9.16003 18.68L9.77003 25.19C9.98003 27.18 10.8 29.23 15.2 29.23H22.82C27.22 29.23 28.04 27.18 28.25 25.18L28.88 18.4C28.87 18.42 28.85 18.44 28.83 18.45C28.4 18.76 27.96 19.05 27.5 19.3Z" fill="#2E95F4"/>
</g>
<defs>
<filter id="filter0_b_727_561" x="-4" y="-4" width="46" height="46" filterUnits="userSpaceOnUse" color-interpolation-filters="sRGB">
<feFlood flood-opacity="0" result="BackgroundImageFix"/>
<feGaussianBlur in="BackgroundImageFix" stdDeviation="2"/>
<feComposite in2="SourceAlpha" operator="in" result="effect1_backgroundBlur_727_561"/>
<feBlend mode="normal" in="SourceGraphic" in2="effect1_backgroundBlur_727_561" result="shape"/>
</filter>
<linearGradient id="paint0_linear_727_561" x1="2.66731e-07" y1="2.68478" x2="30.3587" y2="38" gradientUnits="userSpaceOnUse">
<stop stop-color="white"/>
<stop offset="1" stop-color="#BBD4FF"/>
</linearGradient>
</defs>
</svg>
