<svg width="26" height="27" viewBox="0 0 26 27" fill="none" xmlns="http://www.w3.org/2000/svg">
<path opacity="0.4" d="M18.1678 21.0616H7.83276C7.37776 21.0616 6.96609 20.7691 6.81443 20.3466L2.30776 7.72579C1.95026 6.71829 3.09859 5.86246 3.95443 6.47996L8.28776 9.57829C8.86193 9.98996 9.68526 9.74079 9.93443 9.07996L11.9819 3.61996C12.3286 2.67746 13.6611 2.67746 14.0078 3.61996L16.0553 9.07996C16.3044 9.75163 17.1169 9.98996 17.7019 9.57829L22.0353 6.47996C22.9019 5.86246 24.0394 6.72913 23.6819 7.72579L19.1753 20.3466C19.0344 20.7691 18.6228 21.0616 18.1678 21.0616Z" fill="#007EF1"/>
<path d="M18.6522 25.4167H7.34783C6.88435 25.4167 6.5 24.9256 6.5 24.3333C6.5 23.7411 6.88435 23.25 7.34783 23.25H18.6522C19.1157 23.25 19.5 23.7411 19.5 24.3333C19.5 24.9256 19.1157 25.4167 18.6522 25.4167Z" fill="#248FF2"/>
<path d="M15.7087 16.4792H10.292C9.84783 16.4792 9.47949 16.1109 9.47949 15.6667C9.47949 15.2226 9.84783 14.8542 10.292 14.8542H15.7087C16.1528 14.8542 16.5212 15.2226 16.5212 15.6667C16.5212 16.1109 16.1528 16.4792 15.7087 16.4792Z" fill="#248FF2"/>
</svg>
