<svg width="24" height="25" viewBox="0 0 24 25" fill="none" xmlns="http://www.w3.org/2000/svg">
<path opacity="0.4" d="M19.21 6.86C18.17 4.76 16.16 3.21 13.83 2.7C11.39 2.16 8.88997 2.74 6.97997 4.28C5.05997 5.81 3.96997 8.1 3.96997 10.55C3.96997 13.14 5.51997 15.85 7.85997 17.42V18.25C7.84997 18.53 7.83997 18.96 8.17997 19.31C8.52997 19.67 9.04997 19.71 9.45997 19.71H14.59C15.13 19.71 15.54 19.56 15.82 19.28C16.2 18.89 16.19 18.39 16.18 18.12V17.42C19.28 15.33 21.23 10.92 19.21 6.86Z" fill="#0F85F2"/>
<path d="M15.2599 22.5C15.1999 22.5 15.1299 22.49 15.0699 22.47C13.0599 21.9 10.9499 21.9 8.93991 22.47C8.56991 22.57 8.17991 22.36 8.07991 21.99C7.96991 21.62 8.18991 21.23 8.55991 21.13C10.8199 20.49 13.1999 20.49 15.4599 21.13C15.8299 21.24 16.0499 21.62 15.9399 21.99C15.8399 22.3 15.5599 22.5 15.2599 22.5Z" fill="#007EF1"/>
<path d="M12.0001 14.35C11.8701 14.35 11.7401 14.32 11.6301 14.25C11.2701 14.04 11.1501 13.58 11.3501 13.23L12.2001 11.75H11.3601C10.8601 11.75 10.4501 11.53 10.2301 11.16C10.0101 10.78 10.0301 10.32 10.2801 9.88L11.3501 8.02C11.5601 7.66 12.0201 7.54 12.3701 7.74C12.7301 7.95 12.8501 8.41 12.6501 8.76L11.8001 10.25H12.6401C13.1401 10.25 13.5501 10.47 13.7701 10.84C13.9901 11.22 13.9701 11.68 13.7201 12.12L12.6501 13.98C12.5101 14.22 12.2601 14.35 12.0001 14.35Z" fill="#007EF1"/>
</svg>
