<svg width="24" height="25" viewBox="0 0 24 25" fill="none" xmlns="http://www.w3.org/2000/svg">
<path d="M1 22.6609H23" stroke="#292D32" stroke-width="1.5" stroke-miterlimit="10" stroke-linecap="round" stroke-linejoin="round"/>
<path d="M19.78 22.6709V18.2108" stroke="#292D32" stroke-width="1.5" stroke-miterlimit="10" stroke-linecap="round" stroke-linejoin="round"/>
<path d="M19.8001 11.5509C18.5801 11.5509 17.6001 12.5309 17.6001 13.7509V16.0208C17.6001 17.2408 18.5801 18.2209 19.8001 18.2209C21.0201 18.2209 22.0001 17.2408 22.0001 16.0208V13.7509C22.0001 12.5309 21.0201 11.5509 19.8001 11.5509Z" stroke="#292D32" stroke-width="1.5" stroke-miterlimit="10" stroke-linecap="round" stroke-linejoin="round"/>
<path d="M2.1001 22.6609V6.69089C2.1001 4.68089 3.10015 3.67087 5.09015 3.67087H11.3201C13.3101 3.67087 14.3001 4.68089 14.3001 6.69089V22.6609" stroke="#292D32" stroke-width="1.5" stroke-miterlimit="10" stroke-linecap="round" stroke-linejoin="round"/>
<path d="M5.80005 8.91086H10.7501" stroke="#292D32" stroke-width="1.5" stroke-miterlimit="10" stroke-linecap="round" stroke-linejoin="round"/>
<path d="M5.80005 12.6609H10.7501" stroke="#292D32" stroke-width="1.5" stroke-miterlimit="10" stroke-linecap="round" stroke-linejoin="round"/>
<path d="M8.25 22.6609V18.9109" stroke="#292D32" stroke-width="1.5" stroke-miterlimit="10" stroke-linecap="round" stroke-linejoin="round"/>
</svg>
