<svg width="24" height="25" viewBox="0 0 24 25" fill="none" xmlns="http://www.w3.org/2000/svg">
<path d="M13.3999 18.0809H10.8899C9.24991 18.0809 7.91991 16.7009 7.91991 15.0009C7.91991 14.5909 8.25991 14.2509 8.66991 14.2509C9.07991 14.2509 9.41991 14.5909 9.41991 15.0009C9.41991 15.8709 10.0799 16.5809 10.8899 16.5809H13.3999C14.0499 16.5809 14.5899 16.0009 14.5899 15.3009C14.5899 14.4309 14.2799 14.2609 13.7699 14.0809L9.73991 12.6609C8.95991 12.3909 7.90991 11.8109 7.90991 10.0209C7.90991 8.48086 9.11991 7.24086 10.5999 7.24086H13.1099C14.7499 7.24086 16.0799 8.62086 16.0799 10.3209C16.0799 10.7309 15.7399 11.0709 15.3299 11.0709C14.9199 11.0709 14.5799 10.7309 14.5799 10.3209C14.5799 9.45086 13.9199 8.74086 13.1099 8.74086H10.5999C9.94991 8.74086 9.40991 9.32086 9.40991 10.0209C9.40991 10.8909 9.71991 11.0609 10.2299 11.2409L14.2599 12.6609C15.0399 12.9309 16.0899 13.5109 16.0899 15.3009C16.0799 16.8309 14.8799 18.0809 13.3999 18.0809Z" fill="#292D32"/>
<path d="M12 19.4109C11.59 19.4109 11.25 19.0709 11.25 18.6609V6.66086C11.25 6.25086 11.59 5.91086 12 5.91086C12.41 5.91086 12.75 6.25086 12.75 6.66086V18.6609C12.75 19.0709 12.41 19.4109 12 19.4109Z" fill="#292D32"/>
<path d="M15 23.4109H9C3.57 23.4109 1.25 21.0909 1.25 15.6609V9.66086C1.25 4.23086 3.57 1.91086 9 1.91086H15C20.43 1.91086 22.75 4.23086 22.75 9.66086V15.6609C22.75 21.0909 20.43 23.4109 15 23.4109ZM9 3.41086C4.39 3.41086 2.75 5.05086 2.75 9.66086V15.6609C2.75 20.2709 4.39 21.9109 9 21.9109H15C19.61 21.9109 21.25 20.2709 21.25 15.6609V9.66086C21.25 5.05086 19.61 3.41086 15 3.41086H9Z" fill="#292D32"/>
</svg>
