<svg width="24" height="25" viewBox="0 0 24 25" fill="none" xmlns="http://www.w3.org/2000/svg">
<path d="M6 10.6609V8.66086C6 5.35086 7 2.66086 12 2.66086C17 2.66086 18 5.35086 18 8.66086V10.6609" stroke="#2A2626" stroke-width="1.5" stroke-linecap="round" stroke-linejoin="round"/>
<path d="M12 19.1609C13.3807 19.1609 14.5 18.0416 14.5 16.6609C14.5 15.2801 13.3807 14.1609 12 14.1609C10.6193 14.1609 9.5 15.2801 9.5 16.6609C9.5 18.0416 10.6193 19.1609 12 19.1609Z" stroke="#2A2626" stroke-width="1.5" stroke-linecap="round" stroke-linejoin="round"/>
<path d="M17 22.6609H7C3 22.6609 2 21.6609 2 17.6609V15.6609C2 11.6609 3 10.6609 7 10.6609H17C21 10.6609 22 11.6609 22 15.6609V17.6609C22 21.6609 21 22.6609 17 22.6609Z" stroke="#2A2626" stroke-width="1.5" stroke-linecap="round" stroke-linejoin="round"/>
</svg>
