<svg width="129" height="29" viewBox="0 0 129 29" fill="none" xmlns="http://www.w3.org/2000/svg">
<rect width="129" height="29" fill="#1E1E1E"/>
<g clip-path="url(#clip0_0_1)">
<rect width="1440" height="1024" transform="translate(-72 -68)" fill="#F8F8F8"/>
<path d="M-72.5 -67.5H210.5V955.5H-72.5V-67.5Z" fill="white"/>
<path d="M-72.5 -67.5H210.5V955.5H-72.5V-67.5Z" stroke="#F2F2F7"/>
<path d="M53.0016 4.33627V26.2959H48.2651V8.94851L42.4917 12.5256V8.79187L49.6441 4.33627H53.0016Z" fill="#2D2D33"/>
<path d="M78.351 8.22833H70.0357V26.2993H64.9859V8.22833H56.6707V4.33798H78.3493V8.22833H78.351Z" fill="#2D2D33"/>
<path d="M89.9572 8.13128L83.7463 22.4055H90.2416V26.2959H76.6892L86.8552 4.33627H93.0661L103.232 26.2959H97.835L89.9606 8.13128H89.9572Z" fill="#2D2D33"/>
<path d="M129 11.7101C129 16.6986 125.675 19.1468 119.619 19.1468H111.745V26.2993H106.663V15.3195H119.306C122.255 15.3195 123.823 14.126 123.823 11.7135C123.823 9.30095 122.253 8.1994 119.306 8.1994H106.663V4.3414H120.215C126.206 4.3414 128.999 7.29023 128.999 11.7135V11.7101H129Z" fill="#2D2D33"/>
<path d="M23.6638 9.43217L19.3291 0H8.81073H4.38919L1.09815 7.15926L0 9.55135H13.2016L17.5908 19.1061L18.4046 20.8734L21.9834 28.6609H32.5018L28.9213 20.8734L28.1109 19.1061L23.7183 9.55135H23.6077L23.6638 9.43217Z" fill="#2D2D33"/>
<path d="M24.4819 10.2284L24.5407 10.3576H35.7589L40.4892 0H29.1516L24.4819 10.2284Z" fill="#2E95F4"/>
</g>
<defs>
<clipPath id="clip0_0_1">
<rect width="1440" height="1024" fill="white" transform="translate(-72 -68)"/>
</clipPath>
</defs>
</svg>
